<svg width="100" height="100" viewBox="0 0 100 100" fill="none" xmlns="http://www.w3.org/2000/svg">
  <defs>
    <clipPath id="clip0_307_150">
      <rect width="100" height="100" fill="white" />
    </clipPath>
  </defs>
  <g clip-path="url(#clip0_307_150)">
    <path
      opacity="0.6"
      d="M39.3968 58.1904H25.4921C21.6524 58.1904 18.5397 61.3031 18.5397 65.1428V79.0476C18.5397 82.8873 21.6524 86 25.4921 86H39.3968C43.2365 86 46.3492 82.8873 46.3492 79.0476V65.1428C46.3492 61.3031 43.2365 58.1904 39.3968 58.1904Z"
      fill="#4F46E5"
    />
    <path
      d="M30.127 13H6.95238C3.11268 13 0 16.1127 0 19.9524V36.1746C0 40.0143 3.11268 43.127 6.95238 43.127H30.127C33.9667 43.127 37.0794 40.0143 37.0794 36.1746V19.9524C37.0794 16.1127 33.9667 13 30.127 13Z"
      fill="#4F46E5"
    />
    <path
      opacity="0.9"
      d="M53.3016 35.0159H37.0793C33.2396 35.0159 30.127 38.1286 30.127 41.9683V58.1905C30.127 62.0302 33.2396 65.1429 37.0793 65.1429H53.3016C57.1412 65.1429 60.2539 62.0302 60.2539 58.1905V41.9683C60.2539 38.1286 57.1412 35.0159 53.3016 35.0159Z"
      fill="#4F46E5"
    />
    <path
      d="M58.5294 13H100V43H58.5294C57.0629 43 55.6565 42.2707 54.6196 40.9722C53.5825 39.6739 53 37.913 53 36.0769V19.9231C53 18.087 53.5825 16.3261 54.6196 15.0278C55.6565 13.7293 57.0629 13 58.5294 13Z"
      fill="#6ED889"
    />
  </g>
</svg>
